{"glyphs":{":":{"x_min":0,"x_max":271,"ha":271,"o":"m 97 286 q 97 308 113 324 q 128 340 150 340 q 172 340 188 324 q 204 309 204 286 q 204 264 188 249 q 172 233 150 233 q 128 233 113 249 q 97 264 97 286 z m 60 45 q 60 67 76 83 q 92 98 114 98 q 136 98 151 82 q 167 66 167 45 q 167 23 151 7 q 136 -9 114 -9 q 92 -9 76 7 q 60 22 60 45 z"},"$":{"x_min":0,"x_max":552,"ha":552,"o":"m 340 724 l 384 724 l 372 638 q 422 622 447 603 q 472 584 504 541 l 432 492 q 406 533 358 548 l 328 349 q 421 301 446 259 q 471 216 471 169 q 471 96 419 44 q 366 -7 274 -19 l 257 -125 l 214 -125 l 230 -17 q 104 0 46 114 l 126 151 q 169 80 243 71 l 274 278 q 184 318 152 362 q 121 406 121 460 q 121 535 179 590 q 236 644 317 644 l 328 644 z m 288 371 l 315 554 q 267 550 239 523 q 210 496 210 458 q 210 408 288 371 z m 315 255 l 287 72 q 382 102 382 169 q 382 197 366 217 q 350 236 315 255 z"},"?":{"x_min":0,"x_max":438,"ha":438,"o":"m 269 291 l 349 291 l 349 285 q 349 229 309 191 q 269 154 208 154 q 151 154 110 194 q 69 234 69 289 q 69 319 84 350 q 99 380 129 402 q 158 423 218 448 q 278 473 292 487 q 306 501 306 519 q 306 538 288 551 q 270 563 241 563 q 177 563 171 488 l 90 488 q 93 561 135 603 q 177 644 243 644 q 305 644 346 609 q 386 573 386 519 q 386 473 359 440 q 331 407 264 380 q 197 352 173 332 q 149 312 149 285 q 149 266 167 250 q 186 235 208 235 q 266 235 269 291 z m 113 44 q 113 66 128 82 q 144 98 166 98 q 188 98 203 82 q 219 66 219 44 q 219 22 203 7 q 188 -9 166 -9 q 145 -9 129 7 q 113 22 113 44 z"},"<":{"x_min":0,"x_max":667,"ha":667,"o":"m 598 72 l 69 295 l 69 353 l 598 576 l 598 506 l 155 324 l 598 141 z"},"'":{"x_min":0,"x_max":191,"ha":191,"o":"m 129 462 l 135 596 l 160 716 l 260 716 l 235 596 l 183 462 z"},"=":{"x_min":0,"x_max":667,"ha":667,"o":"m 68 472 l 599 472 l 599 407 l 68 407 z m 68 243 l 599 243 l 599 179 l 68 179 z"},"a":{"x_min":0,"x_max":500,"ha":500,"o":"m 392 391 l 475 391 l 418 0 l 334 0 l 340 42 q 283 -11 217 -11 q 139 -11 81 49 q 24 109 24 192 q 24 278 84 339 q 145 401 228 401 q 327 401 380 305 z m 371 204 q 371 256 333 294 q 295 332 244 332 q 190 332 152 291 q 114 250 114 191 q 114 133 150 96 q 186 58 241 58 q 297 58 334 99 q 371 140 371 204 z"},"L":{"x_min":0,"x_max":385,"ha":385,"o":"m 139 622 l 222 622 l 143 85 l 326 85 l 313 0 l 46 0 z"},"3":{"x_min":0,"x_max":552,"ha":552,"o":"m 210 458 l 118 458 q 128 552 178 599 q 228 645 297 645 q 375 645 431 596 q 487 546 487 477 q 487 428 453 385 q 419 342 360 324 q 474 271 474 165 q 474 89 410 35 q 346 -19 254 -19 q 183 -19 122 28 q 61 74 56 157 l 141 157 q 173 57 263 57 q 313 57 348 91 q 384 124 384 171 q 384 215 348 248 q 312 282 247 281 l 258 359 q 327 366 363 399 q 398 432 398 473 q 398 513 370 541 q 342 569 302 569 q 264 569 239 540 q 213 510 210 458 z"},";":{"x_min":0,"x_max":271,"ha":271,"o":"m 138 280 q 138 302 154 317 q 169 333 191 333 q 213 333 229 317 q 244 302 244 280 q 244 258 229 243 q 213 227 191 227 q 169 227 154 243 q 138 258 138 280 z m 138 111 l 207 70 l 67 -150 l 16 -121 z"},"J":{"x_min":0,"x_max":385,"ha":385,"o":"m 259 622 l 343 622 l 265 109 q 256 50 218 15 q 179 -21 125 -21 q 101 -21 80 -14 q 59 -6 16 17 l 56 89 q 97 63 125 63 q 176 63 186 133 z"},"V":{"x_min":0,"x_max":604,"ha":604,"o":"m 83 622 l 165 622 l 294 179 l 553 622 l 645 622 l 268 -23 z"},"\"":{"x_min":0,"x_max":355,"ha":355,"o":"m 131 462 l 135 599 l 160 716 l 260 716 l 236 599 l 184 462 z m 292 462 l 298 599 l 323 716 l 423 716 l 398 599 l 345 462 z"},"7":{"x_min":0,"x_max":552,"ha":552,"o":"m 60 624 l 538 624 l 80 -32 l 13 15 l 381 541 l 49 541 z"},"S":{"x_min":0,"x_max":500,"ha":500,"o":"m 482 540 l 409 492 q 362 554 297 554 q 254 554 220 525 q 187 497 187 460 q 187 429 211 406 q 235 382 307 348 q 378 314 414 273 q 449 231 449 168 q 449 93 386 36 q 323 -21 239 -21 q 171 -21 111 16 q 51 52 25 114 l 104 151 q 156 68 237 68 q 285 68 323 99 q 360 131 360 170 q 360 201 335 225 q 311 248 240 281 q 168 314 133 356 q 98 398 98 460 q 98 536 156 589 q 214 643 296 643 q 414 643 482 540 z"},"}":{"x_min":0,"x_max":334,"ha":334,"o":"m 306 276 l 306 196 q 269 196 243 175 q 218 154 211 116 q 205 79 205 -24 q 204 -126 191 -155 q 179 -183 154 -208 q 128 -233 50 -233 l 23 -233 l 23 -157 l 38 -157 q 92 -157 107 -138 q 122 -118 122 -56 l 122 15 q 122 118 146 166 q 169 214 224 236 q 160 265 141 315 q 122 365 122 456 l 122 528 q 122 590 107 609 q 92 628 38 628 l 23 628 l 23 705 l 50 705 q 129 705 155 679 q 181 653 192 625 q 204 598 205 498 q 205 397 210 363 q 215 329 229 311 q 242 293 261 284 q 280 276 306 276 z"},"Z":{"x_min":0,"x_max":552,"ha":552,"o":"m 126 622 l 544 622 l 167 84 l 496 84 l 484 0 l 9 0 l 386 539 l 115 539 z"},"x":{"x_min":0,"x_max":500,"ha":500,"o":"m 82 391 l 174 391 l 250 275 l 359 391 l 461 391 l 293 207 l 427 0 l 336 0 l 239 148 l 103 0 l -2 0 l 197 215 z"},")":{"x_min":0,"x_max":333,"ha":333,"o":"m 73 607 l 137 642 q 231 494 231 295 q 231 8 39 -190 l -11 -136 q 82 -38 120 73 q 158 184 158 299 q 158 461 73 607 z"},"&":{"x_min":0,"x_max":667,"ha":667,"o":"m 484 2 l 439 62 q 338 -19 253 -19 q 177 -19 124 28 q 72 75 72 143 q 72 262 242 364 q 215 415 203 448 q 190 481 190 510 q 190 566 235 605 q 281 644 346 644 q 407 644 447 607 q 488 570 488 516 q 488 420 348 338 q 395 261 451 183 q 489 221 532 277 l 593 225 q 554 172 528 146 q 503 121 499 116 l 584 2 z m 310 409 q 373 450 391 472 q 408 493 408 517 q 408 540 390 554 q 371 569 342 569 q 312 569 292 552 q 273 536 273 511 q 273 483 300 429 z m 280 293 q 162 225 162 146 q 162 109 188 85 q 215 62 257 62 q 314 62 391 128 z"},"_":{"x_min":0,"x_max":500,"ha":500,"o":"m -7 -124 l -7 -74 l 507 -74 l 507 -124 z"},"v":{"x_min":0,"x_max":438,"ha":438,"o":"m 36 391 l 123 391 l 198 174 l 328 391 l 421 391 l 179 -16 z"},"O":{"x_min":0,"x_max":771,"ha":771,"o":"m 42 304 q 42 446 145 545 q 247 643 396 643 q 534 643 629 551 q 723 458 723 324 q 723 180 622 79 q 520 -21 374 -21 q 232 -21 137 72 q 42 165 42 304 z m 633 317 q 633 420 565 487 q 497 554 393 554 q 284 554 208 482 q 132 410 132 307 q 132 203 201 135 q 270 68 376 68 q 483 68 558 141 q 633 213 633 317 z"},"(":{"x_min":0,"x_max":333,"ha":333,"o":"m 294 642 l 345 591 q 174 406 174 156 q 174 75 195 -10 q 216 -95 259 -157 l 194 -191 q 101 -51 101 168 q 101 278 145 406 q 189 535 294 642 z"},"C":{"x_min":0,"x_max":604,"ha":604,"o":"m 583 565 l 556 468 q 475 553 369 553 q 264 553 192 482 q 120 411 120 307 q 120 208 188 138 q 255 69 352 69 q 429 69 515 117 l 501 14 q 422 -21 355 -21 q 216 -21 123 73 q 30 166 30 305 q 30 450 129 546 q 228 643 376 643 q 483 643 583 565 z"},"W":{"x_min":0,"x_max":1000,"ha":1000,"o":"m 568 648 l 712 189 l 939 622 l 1029 622 l 694 -25 l 550 435 l 312 -24 l 95 622 l 181 622 l 328 185 z"},"A":{"x_min":0,"x_max":604,"ha":604,"o":"m 391 646 l 562 0 l 479 0 l 441 143 l 194 143 l 112 0 l 17 0 z m 364 438 l 234 212 l 424 212 z"},"f":{"x_min":0,"x_max":333,"ha":333,"o":"m 345 635 l 321 555 q 285 566 267 566 q 235 566 229 526 l 208 391 l 307 391 l 294 314 l 197 314 l 149 0 l 66 0 l 114 314 l 36 314 l 48 391 l 125 391 l 147 538 q 154 589 188 619 q 221 649 270 649 q 304 649 345 635 z"},"Q":{"x_min":0,"x_max":771,"ha":771,"o":"m 593 52 l 666 -39 l 562 -39 l 523 11 q 485 -5 455 -13 q 425 -21 376 -21 q 232 -21 137 71 q 43 164 43 304 q 43 446 146 545 q 250 643 401 643 q 535 643 629 550 q 723 457 723 325 q 723 157 593 52 z m 465 83 l 371 202 l 474 202 l 538 122 q 588 162 611 213 q 634 265 634 318 q 634 418 565 486 q 497 554 396 554 q 286 554 209 482 q 133 410 133 305 q 133 206 200 136 q 268 67 364 67 q 401 67 465 83 z"},"w":{"x_min":0,"x_max":604,"ha":604,"o":"m 47 391 l 114 391 l 184 154 l 328 406 l 329 406 l 401 154 l 538 391 l 615 391 l 384 -15 l 383 -15 l 310 237 l 167 -15 l 166 -15 z"},"-":{"x_min":0,"x_max":333,"ha":333,"o":"m 70 242 l 277 242 l 263 159 l 55 159 z"},"E":{"x_min":0,"x_max":438,"ha":438,"o":"m 117 622 l 410 622 l 397 539 l 189 539 l 165 384 l 374 384 l 362 301 l 154 301 l 122 85 l 329 85 l 318 0 l 24 0 z"},"s":{"x_min":0,"x_max":333,"ha":333,"o":"m 13 64 l 59 122 q 87 92 110 78 q 132 64 161 64 q 185 64 201 75 q 217 87 217 103 q 217 129 165 158 q 113 186 93 214 q 72 242 72 281 q 72 330 110 365 q 148 401 201 401 q 251 401 320 350 l 274 292 q 225 326 196 326 q 174 326 160 313 q 146 300 146 281 q 146 265 158 252 q 171 239 210 217 q 249 196 270 169 q 290 143 290 105 q 290 55 252 22 q 215 -11 157 -11 q 116 -11 83 7 q 50 25 13 64 z"},">":{"x_min":0,"x_max":667,"ha":667,"o":"m 68 576 l 598 352 l 598 295 l 68 72 l 68 141 l 512 323 l 68 506 z"},"l":{"x_min":0,"x_max":219,"ha":219,"o":"m 128 649 l 212 649 l 116 0 l 32 0 z"},"8":{"x_min":0,"x_max":552,"ha":552,"o":"m 372 341 q 485 277 485 171 q 485 93 421 37 q 358 -19 269 -19 q 185 -19 122 35 q 60 90 60 163 q 60 215 97 270 q 135 324 202 346 q 128 399 128 476 q 128 542 184 594 q 241 646 313 646 q 388 646 439 601 q 491 556 491 492 q 491 445 461 402 q 431 359 372 341 z m 402 488 q 402 521 377 546 q 352 571 318 571 q 277 571 246 539 q 216 508 216 465 q 216 431 241 406 q 266 382 301 382 q 341 382 372 414 q 402 445 402 488 z m 398 191 q 398 242 366 274 q 334 307 284 307 q 229 307 190 268 q 151 229 151 174 q 151 124 183 90 q 215 56 263 56 q 319 56 358 96 q 398 135 398 191 z"},"\\":{"x_min":0,"x_max":500,"ha":500,"o":"m 33 724 l 88 724 l 494 -220 l 439 -220 z"},"e":{"x_min":0,"x_max":438,"ha":438,"o":"m 410 175 l 100 175 q 106 116 138 84 q 169 53 220 53 q 273 53 333 115 l 381 67 q 318 -11 220 -11 q 133 -11 77 44 q 21 100 21 187 q 21 276 83 338 q 144 401 232 401 q 307 401 359 346 q 412 291 412 212 q 412 192 410 175 z m 106 237 l 335 237 q 316 333 226 333 q 181 333 149 308 q 116 282 106 237 z"},"b":{"x_min":0,"x_max":500,"ha":500,"o":"m 124 649 l 208 649 l 163 351 q 228 401 289 401 q 367 401 423 342 q 479 283 479 201 q 479 117 417 53 q 354 -11 273 -11 q 224 -11 183 17 q 141 44 122 88 l 110 0 l 26 0 z m 390 204 q 390 259 353 297 q 315 336 262 336 q 207 336 168 294 q 129 252 129 192 q 129 138 167 99 q 205 61 259 61 q 311 61 351 104 q 390 147 390 204 z"},"%":{"x_min":0,"x_max":990,"ha":990,"o":"m 713 728 l 794 728 l 274 -20 l 190 -20 z m 87 458 q 87 578 140 652 q 194 727 277 727 q 339 727 376 682 q 413 636 413 559 q 413 446 357 369 q 302 291 223 291 q 161 291 124 336 q 87 381 87 458 z m 327 563 q 327 608 311 635 q 294 663 268 663 q 230 663 201 602 q 172 540 172 453 q 172 406 187 381 q 202 356 230 356 q 269 356 298 417 q 327 477 327 563 z m 572 154 q 572 255 622 337 q 671 418 763 418 q 823 418 860 372 q 897 325 897 248 q 897 137 842 59 q 787 -19 710 -19 q 647 -19 610 28 q 572 75 572 154 z m 811 259 q 811 304 796 329 q 781 355 755 355 q 708 355 683 285 q 657 214 657 143 q 657 98 673 73 q 688 48 716 48 q 755 48 783 109 q 811 170 811 259 z"},"m":{"x_min":0,"x_max":666,"ha":666,"o":"m 38 0 l 96 391 l 180 391 l 169 316 q 213 357 245 379 q 277 401 310 401 q 381 401 395 314 q 473 401 535 401 q 572 401 597 373 q 621 344 621 300 q 621 290 620 283 l 577 0 l 493 0 l 535 284 q 536 286 536 292 q 536 332 496 332 q 459 332 425 293 q 390 254 382 201 l 352 0 l 268 0 l 308 269 q 309 273 309 283 q 309 332 267 332 q 229 332 195 292 q 160 252 152 199 l 122 0 z"},"#":{"x_min":0,"x_max":668,"ha":668,"o":"m 44 475 l 203 475 l 245 672 l 304 672 l 262 475 l 468 475 l 509 672 l 569 672 l 527 475 l 624 475 l 624 415 l 515 415 l 478 234 l 624 234 l 624 174 l 466 174 l 425 -22 l 365 -22 l 407 174 l 200 174 l 159 -22 l 99 -22 l 140 174 l 44 174 l 44 234 l 153 234 l 191 415 l 44 415 z m 250 415 l 212 235 l 419 235 l 456 415 z"},",":{"x_min":0,"x_max":271,"ha":271,"o":"m 146 112 l 216 73 l 77 -152 l 24 -121 z"},"n":{"x_min":0,"x_max":436,"ha":436,"o":"m 21 0 l 78 391 l 161 391 l 152 322 q 191 362 223 381 q 256 401 295 401 q 337 401 371 366 q 405 331 405 286 q 405 275 404 269 l 363 0 l 281 0 l 318 249 q 319 254 319 265 q 319 295 302 313 q 284 332 256 332 q 211 332 175 285 q 140 238 128 161 l 104 0 z"},"h":{"x_min":0,"x_max":436,"ha":436,"o":"m 107 649 l 191 649 l 149 319 q 185 360 215 380 q 246 401 281 401 q 331 401 367 365 q 403 330 403 280 q 403 271 402 263 l 369 0 l 284 0 l 316 245 l 316 257 q 316 290 298 311 q 280 332 253 332 q 212 332 176 286 q 139 241 131 177 l 108 0 l 25 0 z"},"z":{"x_min":0,"x_max":438,"ha":438,"o":"m 83 391 l 427 391 l 149 74 l 360 74 l 349 0 l -11 0 l 271 320 l 73 320 z"},"B":{"x_min":0,"x_max":500,"ha":500,"o":"m 149 622 l 252 622 q 341 622 393 581 q 446 540 446 471 q 446 376 345 323 q 446 274 446 173 q 446 96 375 48 q 303 0 185 0 l 57 0 z m 222 546 l 194 361 q 285 361 321 391 q 358 422 358 463 q 358 508 326 527 q 294 546 222 546 z m 183 286 l 152 76 l 159 76 q 242 76 276 84 q 311 91 334 117 q 358 142 358 178 q 358 219 323 252 q 287 286 197 286 z"},"K":{"x_min":0,"x_max":552,"ha":552,"o":"m 115 622 l 198 622 l 163 376 l 414 622 l 529 622 l 237 332 l 514 0 l 407 0 l 153 304 l 108 0 l 25 0 z"},"R":{"x_min":0,"x_max":500,"ha":500,"o":"m 136 622 l 242 622 q 342 622 401 573 q 461 524 461 443 q 461 380 416 328 q 372 276 296 259 l 431 0 l 341 0 l 209 252 l 167 253 l 129 0 l 45 0 z m 210 547 l 179 328 q 284 328 328 362 q 371 396 371 444 q 371 477 351 503 q 330 530 300 538 q 270 547 210 547 z"},"T":{"x_min":0,"x_max":438,"ha":438,"o":"m 74 622 l 481 622 l 470 539 l 307 539 l 229 0 l 145 0 l 222 539 l 62 539 z"},"P":{"x_min":0,"x_max":500,"ha":500,"o":"m 134 622 l 265 622 q 350 622 404 572 q 458 521 458 444 q 458 370 399 311 q 339 253 208 253 q 182 253 164 254 l 125 0 l 42 0 z m 207 548 l 175 328 q 280 328 325 363 q 369 397 369 445 q 369 481 348 507 q 327 534 300 541 q 273 548 207 548 z"},"|":{"x_min":0,"x_max":527,"ha":527,"o":"m 231 696 l 296 696 l 296 -135 l 231 -135 z"},"t":{"x_min":0,"x_max":271,"ha":271,"o":"m 151 566 l 234 566 l 208 391 l 280 391 l 269 314 l 197 314 l 150 0 l 66 0 l 114 314 l 52 314 l 63 391 l 124 391 z"},"M":{"x_min":0,"x_max":771,"ha":771,"o":"m 240 647 l 392 173 l 669 648 l 725 0 l 644 0 l 614 388 l 369 -25 l 234 395 l 96 0 l 8 0 z"},"g":{"x_min":0,"x_max":552,"ha":552,"o":"m 431 391 l 514 391 l 457 5 q 445 -75 377 -132 q 310 -189 226 -189 q 161 -189 106 -147 q 52 -105 45 -22 l 121 -22 q 138 -115 225 -115 q 287 -115 329 -73 q 372 -30 377 43 q 311 -11 252 -11 q 173 -11 116 48 q 60 107 60 190 q 60 276 122 339 q 185 401 271 401 q 319 401 361 374 q 402 347 417 302 z m 409 203 q 409 254 370 293 q 331 332 279 332 q 228 332 188 289 q 149 246 149 189 q 149 134 186 96 q 222 58 275 58 q 332 58 370 100 q 409 142 409 203 z"},"j":{"x_min":0,"x_max":219,"ha":219,"o":"m 108 567 q 108 589 124 604 q 139 620 161 620 q 183 620 198 604 q 214 589 214 567 q 214 545 198 530 q 183 514 161 514 q 139 514 124 530 q 108 545 108 567 z m 94 391 l 178 391 l 91 -189 l 9 -189 z"},"i":{"x_min":0,"x_max":219,"ha":219,"o":"m 107 567 q 107 589 123 604 q 138 620 160 620 q 182 620 198 604 q 214 589 214 567 q 214 544 198 529 q 183 513 160 513 q 138 513 123 529 q 107 545 107 567 z m 91 391 l 174 391 l 118 0 l 35 0 z"},"y":{"x_min":0,"x_max":438,"ha":438,"o":"m 40 391 l 125 391 l 208 146 l 349 391 l 442 391 l 110 -189 l 14 -189 l 153 50 z"},"@":{"x_min":0,"x_max":1015,"ha":1015,"o":"m 893 9 l 981 9 q 940 -74 830 -142 q 720 -210 550 -210 q 320 -210 188 -93 q 57 25 57 229 q 57 372 125 495 q 193 619 302 674 q 411 729 540 729 q 721 729 840 621 q 958 513 958 348 q 958 213 867 106 q 776 -2 664 -2 q 614 -2 594 17 q 573 37 570 80 q 498 -2 420 -2 q 346 -2 294 62 q 243 125 243 218 q 243 336 322 433 q 400 529 496 529 q 587 529 644 439 l 660 515 l 748 515 l 667 141 q 663 118 663 111 q 663 98 673 89 q 683 79 697 79 q 724 79 771 114 q 819 148 852 213 q 885 278 885 350 q 885 482 785 570 q 686 658 535 658 q 360 658 245 538 q 129 418 129 237 q 129 60 240 -39 q 352 -138 552 -138 q 676 -138 767 -93 q 858 -48 893 9 z m 501 457 q 438 457 385 382 q 333 306 333 212 q 333 150 363 111 q 393 71 438 71 q 504 71 560 146 q 616 222 616 315 q 616 380 585 418 q 553 457 501 457 z"},".":{"x_min":0,"x_max":219,"ha":219,"o":"m 42 57 q 42 84 61 104 q 81 123 108 123 q 135 123 154 104 q 174 84 174 57 q 174 30 155 10 q 135 -9 108 -9 q 81 -9 61 10 q 42 29 42 57 z"},"p":{"x_min":0,"x_max":500,"ha":500,"o":"m 175 391 l 169 347 q 237 401 298 401 q 373 401 429 342 q 486 284 486 207 q 486 118 426 53 q 366 -11 283 -11 q 176 -11 130 84 l 89 -189 l 6 -189 l 91 391 z m 396 206 q 396 258 360 296 q 324 334 273 334 q 213 334 176 292 q 138 250 138 184 q 138 134 177 96 q 215 58 266 58 q 319 58 358 102 q 396 145 396 206 z"},"X":{"x_min":0,"x_max":552,"ha":552,"o":"m 107 622 l 197 622 l 311 399 l 467 622 l 566 622 l 353 316 l 512 0 l 423 0 l 301 241 l 133 0 l 33 0 l 259 324 z"},"*":{"x_min":0,"x_max":438,"ha":438,"o":"m 182 484 l 182 501 q 150 513 112 520 q 73 527 58 538 q 42 550 42 571 q 42 587 54 599 q 65 611 81 611 q 105 611 133 579 q 163 543 193 521 l 206 528 q 205 558 191 594 q 177 629 177 644 q 177 662 189 675 q 201 688 218 688 q 235 688 247 676 q 259 663 259 646 q 259 634 245 597 q 231 560 230 529 l 244 520 q 273 542 294 567 q 315 592 329 601 q 342 610 357 610 q 374 610 385 598 q 397 586 397 569 q 397 549 382 538 q 366 527 326 520 q 286 513 254 499 l 254 483 q 290 468 329 463 q 367 457 382 446 q 396 435 396 413 q 396 397 384 386 q 373 374 357 374 q 341 374 328 383 q 315 393 291 422 q 267 451 244 466 l 229 458 q 230 433 244 396 q 258 358 258 341 q 258 322 247 309 q 235 296 218 296 q 199 296 188 308 q 177 320 177 341 q 177 359 192 395 q 207 432 206 459 l 194 465 q 170 449 137 408 q 106 373 82 373 q 66 373 54 385 q 42 396 42 412 q 42 434 59 446 q 77 458 117 466 q 157 473 182 484 z"},"Y":{"x_min":0,"x_max":552,"ha":552,"o":"m 96 622 l 186 622 l 306 382 l 477 622 l 575 622 l 337 289 l 292 0 l 208 0 l 254 303 z"},"c":{"x_min":0,"x_max":385,"ha":385,"o":"m 343 109 l 328 10 q 266 -11 234 -11 q 155 -11 100 49 q 46 108 46 196 q 46 281 105 341 q 165 401 248 401 q 309 401 373 365 l 360 277 q 292 318 249 318 q 199 318 164 281 q 128 245 128 193 q 128 144 159 109 q 191 73 234 73 q 274 73 343 109 z"},"!":{"x_min":0,"x_max":271,"ha":271,"o":"m 155 623 l 238 623 l 169 155 l 85 155 z m 57 45 q 57 67 73 83 q 89 98 111 98 q 133 98 148 82 q 164 66 164 45 q 164 23 148 7 q 133 -9 111 -9 q 88 -9 73 7 q 57 22 57 45 z"},"/":{"x_min":0,"x_max":500,"ha":500,"o":"m 433 725 l 489 725 l 84 -220 l 26 -220 z"},"[":{"x_min":0,"x_max":333,"ha":333,"o":"m 136 631 l 314 631 l 306 570 l 197 570 l 102 -99 l 214 -99 l 205 -159 l 25 -159 z"},"6":{"x_min":0,"x_max":552,"ha":552,"o":"m 348 623 l 452 623 l 267 400 l 304 401 q 388 401 441 351 q 495 302 495 225 q 495 127 422 54 q 349 -19 252 -19 q 169 -19 110 40 q 52 98 52 181 q 52 223 79 278 q 105 333 152 388 z m 405 228 q 405 275 373 308 q 341 341 296 341 q 236 341 188 291 q 140 242 140 179 q 140 134 174 102 q 207 70 254 70 q 314 70 360 117 q 405 165 405 228 z"},"r":{"x_min":0,"x_max":333,"ha":333,"o":"m 15 0 l 73 391 l 158 391 l 146 308 q 150 318 173 349 q 196 380 217 391 q 238 401 270 401 q 295 401 333 388 l 295 307 q 261 321 237 321 q 189 321 164 290 q 138 260 127 186 l 99 0 z"},"2":{"x_min":0,"x_max":552,"ha":552,"o":"m 197 433 l 115 433 q 120 541 183 592 q 245 643 321 643 q 401 643 458 588 q 514 533 514 456 q 514 413 489 359 q 463 306 427 271 l 233 83 l 464 83 l 452 0 l 33 0 l 356 316 q 431 390 431 456 q 431 500 399 530 q 367 560 320 560 q 277 560 240 530 q 202 500 197 433 z"},"{":{"x_min":0,"x_max":334,"ha":334,"o":"m 28 196 l 28 276 q 54 276 73 285 q 92 293 105 311 q 119 329 124 364 q 129 398 129 499 q 130 600 142 626 q 154 653 180 679 q 206 705 284 705 l 311 705 l 311 628 l 296 628 q 242 628 227 609 q 212 590 212 528 l 212 456 q 212 355 190 308 q 168 260 110 236 q 165 214 188 166 q 212 118 212 15 l 212 -56 q 212 -118 227 -138 q 242 -157 296 -157 l 311 -157 l 311 -233 l 284 -233 q 205 -233 179 -207 q 153 -181 142 -154 q 130 -126 129 -24 q 129 79 123 116 q 116 154 91 175 q 65 196 28 196 z"},"9":{"x_min":0,"x_max":552,"ha":552,"o":"m 170 -31 l 109 21 l 282 229 l 241 227 q 158 227 104 278 q 51 328 51 406 q 51 503 124 575 q 197 647 296 647 q 378 647 437 589 q 496 532 496 451 q 496 403 471 352 q 447 300 389 231 z m 409 444 q 409 491 376 525 q 343 558 297 558 q 233 558 188 512 q 142 465 142 401 q 142 354 175 321 q 208 287 255 287 q 311 287 360 338 q 409 388 409 444 z"}," ":{"x_min":0,"x_max":276,"ha":276,"o":""},"I":{"x_min":0,"x_max":271,"ha":271,"o":"m 159 622 l 243 622 l 152 0 l 68 0 z"},"H":{"x_min":0,"x_max":604,"ha":604,"o":"m 143 622 l 228 622 l 193 381 l 465 381 l 500 622 l 583 622 l 490 0 l 408 0 l 452 299 l 181 299 l 137 0 l 51 0 z"},"4":{"x_min":0,"x_max":552,"ha":552,"o":"m 506 646 l 440 195 l 505 195 l 495 120 l 428 120 l 411 0 l 336 0 l 353 120 l 45 120 z m 203 195 l 364 195 l 397 415 z"},"~":{"x_min":0,"x_max":656,"ha":656,"o":"m 592 413 l 592 342 q 518 280 453 280 q 418 280 388 291 q 358 302 299 331 q 239 359 206 359 q 144 359 64 292 l 64 362 q 141 423 207 423 q 236 423 266 413 q 296 402 358 373 q 419 344 451 344 q 515 344 592 413 z"},"D":{"x_min":0,"x_max":604,"ha":604,"o":"m 126 622 l 289 622 q 417 622 499 545 q 581 469 581 349 q 581 252 538 173 q 495 94 413 47 q 331 0 247 0 l 33 0 z m 198 539 l 130 84 q 167 82 179 82 q 345 82 419 158 q 493 233 493 343 q 493 418 458 464 q 423 510 369 525 q 315 539 198 539 z"},"^":{"x_min":0,"x_max":469,"ha":469,"o":"m 116 337 l 26 337 l 199 728 l 270 728 l 443 337 l 354 337 l 234 629 z"},"0":{"x_min":0,"x_max":552,"ha":552,"o":"m 45 252 q 45 417 121 531 q 198 646 304 646 q 382 646 444 582 q 505 518 505 383 q 505 209 428 95 q 351 -19 238 -19 q 172 -19 109 42 q 45 104 45 252 z m 417 385 q 417 460 386 509 q 356 557 310 557 q 240 557 186 465 q 133 373 133 246 q 133 167 163 119 q 194 71 242 71 q 313 71 365 163 q 417 254 417 385 z"},"F":{"x_min":0,"x_max":438,"ha":438,"o":"m 120 622 l 411 622 l 399 539 l 192 539 l 169 383 l 375 383 l 363 299 l 157 299 l 113 0 l 27 0 z"},"`":{"x_min":0,"x_max":333,"ha":333,"o":"m 221 477 l 126 611 l 233 611 l 290 477 z"},"k":{"x_min":0,"x_max":438,"ha":438,"o":"m 126 649 l 210 649 l 145 211 l 306 391 l 415 391 l 240 195 l 389 0 l 286 0 l 141 189 l 114 0 l 29 0 z"},"u":{"x_min":0,"x_max":438,"ha":438,"o":"m 77 391 l 161 391 l 122 142 l 121 129 q 121 70 195 70 q 234 70 263 92 q 292 115 297 148 l 334 391 l 416 391 l 380 147 q 370 75 317 32 q 265 -11 187 -11 q 125 -11 82 26 q 39 64 39 117 q 39 148 43 170 q 47 191 48 196 z"},"]":{"x_min":0,"x_max":333,"ha":333,"o":"m 136 631 l 315 631 l 204 -159 l 25 -159 l 35 -99 l 145 -99 l 239 570 l 128 570 z"},"U":{"x_min":0,"x_max":603,"ha":603,"o":"m 127 622 l 211 622 l 149 197 q 148 190 148 176 q 148 122 183 92 q 218 61 280 61 q 351 61 396 99 q 442 136 452 204 l 513 622 l 598 622 l 531 183 q 517 89 450 34 q 383 -21 282 -21 q 182 -21 124 31 q 65 84 65 173 q 65 188 68 209 z"},"o":{"x_min":0,"x_max":500,"ha":500,"o":"m 38 187 q 38 275 101 337 q 165 400 254 400 q 343 400 402 343 q 461 286 461 201 q 461 111 399 51 q 338 -9 245 -9 q 154 -9 96 46 q 38 101 38 187 z m 256 317 q 199 317 160 279 q 121 241 121 189 q 121 137 154 105 q 187 74 241 74 q 302 74 340 108 q 378 143 378 198 q 378 249 344 283 q 310 317 256 317 z"},"N":{"x_min":0,"x_max":667,"ha":667,"o":"m 145 652 l 503 179 l 570 622 l 651 622 l 557 -24 l 198 448 l 133 0 l 50 0 z"},"+":{"x_min":0,"x_max":667,"ha":667,"o":"m 67 355 l 300 355 l 300 589 l 364 589 l 364 355 l 599 355 l 599 291 l 364 291 l 364 59 l 300 59 l 300 291 l 67 291 z"},"G":{"x_min":0,"x_max":667,"ha":667,"o":"m 636 525 l 569 464 q 533 510 479 532 q 425 555 369 555 q 266 555 190 477 q 114 399 114 294 q 114 196 174 133 q 234 69 325 69 q 457 69 527 183 l 371 183 l 371 266 l 647 266 q 625 134 539 56 q 453 -21 327 -21 q 196 -21 112 68 q 27 157 27 295 q 27 432 126 538 q 226 643 378 643 q 449 643 517 614 q 586 584 636 525 z"},"q":{"x_min":0,"x_max":500,"ha":500,"o":"m 378 307 l 391 391 l 473 391 l 386 -189 l 303 -189 l 338 42 q 283 -11 213 -11 q 135 -11 79 50 q 24 111 24 197 q 24 278 87 340 q 150 401 234 401 q 323 401 378 307 z m 371 202 q 371 255 333 292 q 295 329 241 329 q 191 329 151 287 q 111 245 111 192 q 111 134 148 94 q 186 55 241 55 q 295 55 333 98 q 371 140 371 202 z"},"d":{"x_min":0,"x_max":500,"ha":500,"o":"m 427 649 l 510 649 l 412 0 l 330 0 l 335 44 q 299 15 271 2 q 243 -11 205 -11 q 131 -11 75 50 q 18 111 18 191 q 18 277 80 339 q 142 401 227 401 q 326 401 376 305 z m 366 200 q 366 254 329 292 q 291 331 239 331 q 183 331 145 289 q 107 247 107 185 q 107 131 144 93 q 182 55 235 55 q 289 55 327 98 q 366 140 366 200 z"},"1":{"x_min":0,"x_max":552,"ha":552,"o":"m 196 622 l 380 622 l 288 0 l 204 0 l 284 539 l 173 539 z"},"5":{"x_min":0,"x_max":552,"ha":552,"o":"m 237 623 l 514 623 l 488 542 l 297 542 l 253 406 q 283 410 299 410 q 386 410 440 360 q 493 309 493 227 q 493 125 423 53 q 352 -19 253 -19 q 207 -19 151 2 q 95 23 34 103 l 97 166 q 156 70 256 70 q 315 70 360 117 q 404 164 404 227 q 404 274 370 304 q 337 334 284 334 q 222 334 129 297 z"}}}
